<svg xmlns="http://www.w3.org/2000/svg" viewBox="0 0 110.62 83.79"><defs><style>.cls-1{fill:#df7878;}.cls-2{fill:#f1cb62;}.cls-3{fill:none;stroke:#272726;stroke-linecap:round;stroke-linejoin:round;stroke-width:1.56px;}</style></defs><title>Heart</title><g id="Layer_2" data-name="Layer 2"><g id="objects"><path class="cls-1" d="M65.53,41.36l3.13-6.14h34.83A23.22,23.22,0,0,0,66.75,7.58L59,15.34Z"/><path class="cls-1" d="M28.65,35.22l10.07-19L45.21,32.3l6.63-20.11L47.23,7.58A23.22,23.22,0,0,0,10.49,35.22Z"/><polygon class="cls-1" points="74.1 44.1 62.7 66.49 54.3 33.08 46.05 58.13 37.63 37.23 33.99 44.1 18.08 44.1 56.99 83.01 95.91 44.1 74.1 44.1"/><polygon class="cls-2" points="70.48 38.09 67.35 44.23 66.27 39.91 65.53 41.36 56.64 6.52 46.46 37.37 44.94 33.07 45.2 32.27 40.17 19.77 30.47 38.09 0.78 38.09 0.78 44.1 33.99 44.1 37.63 37.23 46.05 58.13 54.3 33.08 62.7 66.49 74.1 44.1 109.84 44.1 109.84 38.09 70.48 38.09"/><path class="cls-3" d="M83.17,6.23A17.77,17.77,0,0,1,100.93,24"/><path class="cls-3" d="M14.36,30a17.87,17.87,0,0,1-1.23-6.52"/><path class="cls-3" d="M65.53,41.36l3.13-6.14h34.83A23.22,23.22,0,0,0,66.75,7.58L59,15.34Z"/><path class="cls-3" d="M28.65,35.22l10.07-19L45.21,32.3l6.63-20.11L47.23,7.58A23.22,23.22,0,0,0,10.49,35.22Z"/><polygon class="cls-3" points="74.1 44.1 62.7 66.49 54.3 33.08 46.05 58.13 37.63 37.23 33.99 44.1 18.08 44.1 56.99 83.01 95.91 44.1 74.1 44.1"/><polygon class="cls-3" points="62.7 66.49 54.3 33.08 46.05 58.13 37.63 37.23 33.99 44.1 0.78 44.1 0.78 35.22 28.65 35.22 38.73 16.18 45.21 32.3 55.45 1.24 65.53 41.36 68.66 35.22 109.84 35.22 109.84 44.1 74.1 44.1 62.7 66.49"/></g></g></svg>