<svg xmlns="http://www.w3.org/2000/svg" viewBox="0 0 101.72 105.42"><defs><style>.cls-1{fill:#a9d9ac;}.cls-2{fill:#f1cb62;}.cls-3{fill:#df7878;}.cls-4{fill:none;stroke:#272726;stroke-linecap:round;stroke-linejoin:round;stroke-width:1.56px;}</style></defs><title>Run</title><g id="Layer_2" data-name="Layer 2"><g id="objects"><polygon class="cls-1" points="60.63 35.1 44.74 19.21 51.68 12.27 68.13 28.71 60.63 35.1"/><path class="cls-2" d="M36.42,43q-.37-.32-.75-.66Q36,42.65,36.42,43Z"/><path class="cls-2" d="M44.84,19.31,33.22,31.77l0,0C31.39,34,32.79,38.67,36.43,43c4.29,3.64,9,5,11.17,3.19l0,0,13-11.07Z"/><path class="cls-3" d="M72.5,72.24a20.61,20.61,0,0,0-10.56,2.5c.27-.53,1.48-4.62,1.48-4.62L46.3,52.94l4.22-4.22A6.68,6.68,0,0,0,51.7,47a9.4,9.4,0,0,1-4-.89l-.11.1,0,0c-2.44,2.07-8,.08-12.7-4.58-3.78-3.78-5.8-8.18-5.32-11h0L7.21,52.93h0L51.58,97.31a25,25,0,0,0,17.7,7.33H90.47s0,0,0,0V90.22C90.49,80.29,82.41,72.88,72.5,72.24Z"/><path class="cls-4" d="M26.36,42.28a12.13,12.13,0,0,1,0,17.14"/><path class="cls-4" d="M82.52,80.14a14.17,14.17,0,0,1,4,12.09"/><path class="cls-4" d="M90.49,90.22a18,18,0,0,0-18-18,17.8,17.8,0,0,0-6,1h0L46.3,52.94l4.22-4.22c1.53-1.53,2-3.82,1.67-6.44l-4.57,3.89,0,0c-2.44,2.07-8,.08-12.7-4.58s-6.64-10.25-4.58-12.69v0l4.21-4.52c-2.75-.47-5.18,0-6.77,1.62l-27,27h0L45.15,97.31a25,25,0,0,0,17.7,7.33H90.47s0,0,0,0Z"/><path class="cls-4" d="M6,47.77,51.51,93.32A16.34,16.34,0,0,0,63.06,98.1H90.49"/><path class="cls-4" d="M62.61,75.2a17.93,17.93,0,0,1,9.89-3"/><path class="cls-4" d="M100.94.78H56.47L30.31,28.86v0c-2.06,2.44-.08,8,4.58,12.69s10.26,6.65,12.7,4.58l0,0Z"/><path class="cls-4" d="M52.85,53.16c.86-.86,2.46-.36,3.76.94s1.87,2.84.94,3.76c-1.26,1.27-5.53.83-5.53.83S51.58,54.42,52.85,53.16Z"/><path class="cls-4" d="M48.12,67.29C46.43,69,44.3,69,43,67.71s-1.41-3.3.42-5.12c2.49-2.49,8.6-3.9,8.6-3.9S50.62,64.8,48.12,67.29Z"/><path class="cls-4" d="M60.42,60.73c.86-.86,2.47-.35,3.77,1s1.87,2.83.94,3.76c-1.27,1.26-5.53.82-5.53.82S59.16,62,60.42,60.73Z"/><path class="cls-4" d="M55.7,74.87c-1.69,1.69-3.83,1.72-5.12.42S49.17,72,51,70.16c2.5-2.49,8.61-3.9,8.61-3.9S58.19,72.38,55.7,74.87Z"/><line class="cls-4" x1="48.62" y1="9.21" x2="68.13" y2="28.71"/><line class="cls-4" x1="41.92" y1="16.39" x2="60.63" y2="35.1"/><line class="cls-4" x1="51.68" y1="12.27" x2="44.74" y2="19.21"/><line class="cls-4" x1="55.03" y1="15.61" x2="48.08" y2="22.55"/><line class="cls-4" x1="58.37" y1="18.96" x2="51.43" y2="25.9"/><line class="cls-4" x1="61.72" y1="22.31" x2="54.78" y2="29.25"/><line class="cls-4" x1="65.07" y1="25.65" x2="58.12" y2="32.59"/></g></g></svg>